<svg width="35" height="30" viewBox="0 0 35 30" fill="none" xmlns="http://www.w3.org/2000/svg">
<path fill-rule="evenodd" clip-rule="evenodd" d="M0 15C0 14.4318 0.225724 13.8868 0.627515 13.485C1.02931 13.0833 1.57425 12.8575 2.14247 12.8575H26.9651L17.7654 3.66205C17.3631 3.25975 17.1371 2.71411 17.1371 2.14518C17.1371 1.57624 17.3631 1.03061 17.7654 0.628308C18.1677 0.22601 18.7133 0 19.2822 0C19.8512 0 20.3968 0.22601 20.7991 0.628308L33.6539 13.4831C33.8534 13.6821 34.0117 13.9186 34.1198 14.1789C34.2278 14.4392 34.2834 14.7182 34.2834 15C34.2834 15.2818 34.2278 15.5608 34.1198 15.8211C34.0117 16.0814 33.8534 16.3179 33.6539 16.5169L20.7991 29.3717C20.3968 29.774 19.8512 30 19.2822 30C18.7133 30 18.1677 29.774 17.7654 29.3717C17.3631 28.9694 17.1371 28.4238 17.1371 27.8548C17.1371 27.2859 17.3631 26.7403 17.7654 26.338L26.9651 17.1425H2.14247C1.57425 17.1425 1.02931 16.9167 0.627515 16.515C0.225724 16.1132 0 15.5682 0 15Z" fill="#2B6D55"/>
</svg>
