<svg width="35" height="30" viewBox="0 0 35 30" fill="none" xmlns="http://www.w3.org/2000/svg">
<path fill-rule="evenodd" clip-rule="evenodd" d="M35 15C35 14.4318 34.7696 13.8868 34.3594 13.485C33.9492 13.0833 33.3928 12.8575 32.8127 12.8575H7.4712L16.8633 3.66205C17.274 3.25975 17.5047 2.71411 17.5047 2.14518C17.5047 1.57624 17.274 1.03061 16.8633 0.628308C16.4526 0.22601 15.8955 0 15.3147 0C14.7339 0 14.1768 0.22601 13.7661 0.628308L0.64259 13.4831C0.438896 13.6821 0.27729 13.9186 0.167027 14.1789C0.0567589 14.4392 0 14.7182 0 15C0 15.2818 0.0567589 15.5608 0.167027 15.8211C0.27729 16.0814 0.438896 16.3179 0.64259 16.5169L13.7661 29.3717C14.1768 29.774 14.7339 30 15.3147 30C15.8955 30 16.4526 29.774 16.8633 29.3717C17.274 28.9694 17.5047 28.4238 17.5047 27.8548C17.5047 27.2859 17.274 26.7403 16.8633 26.338L7.4712 17.1425H32.8127C33.3928 17.1425 33.9492 16.9167 34.3594 16.515C34.7696 16.1132 35 15.5682 35 15Z" fill="#2B6D55"/>
</svg>
